STARTFONT 2.1
FONT -Test-Fixed-Medium-R-Normal--8-80-75-75-C-40-ISO10646-1
SIZE 8 75 75
FONTBOUNDINGBOX 4 8 0 -2
STARTPROPERTIES 5
FOUNDRY "Test"
FAMILY_NAME "Fixed"
WEIGHT_NAME "Medium"
PIXEL_SIZE 8
FONTNAME_REGISTRY ""
ENDPROPERTIES
CHARS 3
STARTCHAR space
ENCODING 32
SWIDTH 640 0
DWIDTH 4 0
BBX 4 8 0 -2
BITMAP
00
00
00
00
00
00
00
00
ENDCHAR
STARTCHAR A
ENCODING 65
SWIDTH 640 0
DWIDTH 4 0
BBX 4 8 1 -1
BITMAP
60
90
90
F0
90
90
00
00
ENDCHAR
STARTCHAR B
ENCODING 66
SWIDTH 640 0
DWIDTH 4 0
BBX 4 8 0 0
BITMAP
E0
90
E0
90
90
E0
00
00
ENDCHAR
ENDFONT 